<svg xmlns="http://www.w3.org/2000/svg" style="display: none;"><symbol id="settings" viewBox="0 0 24 24"><title>settings</title><g><path d="m13.12 24h-2.24c-.757 0-1.396-.567-1.486-1.32l-.239-1.876c-.477-.155-.937-.346-1.374-.569l-1.494 1.161c-.606.469-1.459.415-1.985-.126l-1.575-1.575c-.537-.521-.591-1.374-.122-1.979l1.161-1.495c-.224-.437-.415-.897-.569-1.374l-1.88-.239c-.75-.092-1.317-.731-1.317-1.488v-2.24c0-.757.567-1.396 1.32-1.486l1.876-.239c.155-.477.346-.937.569-1.374l-1.16-1.494c-.47-.606-.415-1.46.127-1.986l1.575-1.575c.521-.537 1.375-.59 1.979-.122l1.494 1.162c.437-.223.897-.414 1.375-.569l.239-1.88c.09-.75.729-1.317 1.486-1.317h2.24c.757 0 1.396.567 1.486 1.32l.239 1.876c.478.155.938.346 1.375.569l1.494-1.161c.607-.469 1.459-.415 1.985.127l1.575 1.575c.537.521.591 1.374.122 1.979l-1.161 1.495c.224.437.415.897.569 1.374l1.88.239c.749.091 1.316.73 1.316 1.487v2.24c0 .757-.567 1.396-1.32 1.486l-1.876.239c-.155.477-.346.937-.569 1.374l1.161 1.494c.47.606.415 1.459-.127 1.985l-1.575 1.575c-.521.537-1.375.592-1.979.122l-1.495-1.161c-.437.224-.897.415-1.374.569l-.239 1.88c-.091.75-.73 1.317-1.487 1.317zm-5.39-4.86c.083 0 .168.021.244.063.551.308 1.148.556 1.774.736.192.055.333.219.358.417l.28 2.2c.03.251.247.444.494.444h2.24c.247 0 .464-.193.493-.439l.281-2.204c.025-.198.166-.362.358-.417.626-.18 1.223-.428 1.774-.736.175-.098.393-.081.55.042l1.75 1.36c.201.156.483.143.655-.034l1.585-1.585c.181-.176.195-.458.039-.66l-1.36-1.75c-.123-.158-.14-.375-.042-.55.308-.551.556-1.148.736-1.774.055-.192.219-.333.417-.358l2.2-.28c.251-.031.444-.248.444-.495v-2.24c0-.247-.193-.464-.439-.493l-2.204-.281c-.198-.025-.362-.166-.417-.358-.18-.626-.428-1.223-.736-1.774-.098-.175-.082-.392.042-.55l1.36-1.75c.157-.202.143-.484-.033-.654l-1.585-1.585c-.175-.182-.458-.196-.66-.039l-1.75 1.36c-.159.123-.376.14-.551.042-.549-.308-1.146-.555-1.774-.736-.192-.055-.333-.219-.358-.417l-.28-2.2c-.031-.252-.248-.445-.495-.445h-2.24c-.247 0-.464.193-.493.439l-.281 2.204c-.025.198-.166.362-.358.418-.628.18-1.225.428-1.774.735-.175.099-.392.081-.551-.041l-1.75-1.36c-.202-.157-.483-.143-.654.033l-1.585 1.586c-.181.176-.195.458-.039.66l1.36 1.75c.123.158.14.375.042.55-.309.551-.556 1.148-.736 1.774-.055.192-.219.333-.417.358l-2.2.28c-.251.03-.444.247-.444.494v2.24c0 .247.193.464.439.493l2.204.281c.198.025.362.166.417.358.18.626.428 1.223.736 1.774.098.175.082.392-.042.55l-1.36 1.75c-.157.202-.143.484.033.654l1.585 1.585c.175.181.456.195.66.039l1.75-1.36c.091-.068.199-.104.308-.104z"/></g><g><path d="m12 17c-2.757 0-5-2.243-5-5s2.243-5 5-5 5 2.243 5 5-2.243 5-5 5zm0-9c-2.206 0-4 1.794-4 4s1.794 4 4 4 4-1.794 4-4-1.794-4-4-4z"/></g></symbol><symbol id="briefcase" viewBox="0 0 512 512"><title>briefcase</title><path d="M469.333,106.667H362.667V85.333c0-23.531-19.135-42.667-42.667-42.667H192c-23.531,0-42.667,19.135-42.667,42.667v21.333 H42.667C19.135,106.667,0,125.802,0,149.333v277.333c0,23.531,19.135,42.667,42.667,42.667h426.667 c23.531,0,42.667-19.135,42.667-42.667V149.333C512,125.802,492.865,106.667,469.333,106.667z M170.667,85.333 C170.667,73.573,180.24,64,192,64h128c11.76,0,21.333,9.573,21.333,21.333v21.333H170.667V85.333z M490.667,426.667 c0,11.76-9.573,21.333-21.333,21.333H42.667c-11.76,0-21.333-9.573-21.333-21.333V271.4c6.301,3.674,13.527,5.934,21.333,5.934 h170.667v32c0,5.896,4.771,10.667,10.667,10.667h64c5.896,0,10.667-4.771,10.667-10.667v-32h170.667 c7.806,0,15.033-2.259,21.333-5.934V426.667z M234.667,298.667V256h42.667v42.667H234.667z M490.667,234.667 c0,11.76-9.573,21.333-21.333,21.333H298.667v-10.667c0-5.896-4.771-10.667-10.667-10.667h-64 c-5.896,0-10.667,4.771-10.667,10.667V256H42.667c-11.76,0-21.333-9.573-21.333-21.333v-85.333 c0-11.76,9.573-21.333,21.333-21.333h426.667c11.76,0,21.333,9.573,21.333,21.333V234.667z"/></symbol><symbol id="two-users" viewBox="0 0 329.312 329.311"><title>two-users</title><path d="M275.342,199.306c-8.328,7.849-18.561,13.644-29.939,16.67c10.664,16.892,17.948,36.208,20.639,57.105 c0.516,4.035-0.229,7.95-1.946,11.499h58.541c1.874,0,3.705-0.858,5.008-2.348c1.249-1.418,1.844-3.23,1.622-4.96 C324.947,243.633,303.799,214.913,275.342,199.306z"/><path d="M207.83,176.242c2.342,1.663,4.594,3.441,6.821,5.242c2.24,1.813,4.456,3.651,6.575,5.597 c6.035,5.513,11.59,11.541,16.604,18.032c9.476-1.729,18.146-5.771,25.4-11.535c1.825-1.453,3.572-2.984,5.206-4.636 c1.531-1.549,2.948-3.206,4.294-4.912c7.722-9.812,12.369-22.139,12.369-35.56c0-31.771-25.851-57.622-57.622-57.622 c-6.677,0-13.066,1.198-19.035,3.302c2.084,7.341,3.272,15.057,3.272,23.059c0,19.053-6.395,36.602-17.053,50.77 C199.201,170.513,203.608,173.234,207.83,176.242z"/><path d="M121.58,284.581h10.761h111.902c2.925,0,5.669-1.219,7.536-3.333c1.64-1.855,2.372-4.203,2.054-6.599 c-2.679-20.915-10.395-40.082-21.708-56.487c-1.393-2.012-2.804-4.005-4.299-5.933c-1.718-2.198-3.543-4.3-5.387-6.39 c-5.296-5.969-11.108-11.438-17.396-16.327c-2.149-1.675-4.365-3.26-6.623-4.791c-2.204-1.496-4.408-2.973-6.702-4.33 c-1.717-1.021-3.488-1.957-5.26-2.9c-1.735,1.724-3.543,3.369-5.428,4.942c-1.58,1.309-3.243,2.51-4.918,3.711 c-1.658,1.188-3.375,2.3-5.123,3.362c-0.834,0.511-1.65,1.045-2.51,1.525c-0.258,0.145-0.498,0.318-0.756,0.457 c-12.106,6.677-25.995,10.496-40.77,10.496c-23.182,0-44.198-9.374-59.517-24.5c-35.773,19.006-61.9,54.523-67.368,97.122 c-0.312,2.413,0.426,4.768,2.078,6.647c1.858,2.107,4.6,3.326,7.509,3.326h105.111H121.58z"/><path d="M74.707,167.295c1.519,1.579,3.11,3.086,4.765,4.527c12.733,11.085,29.312,17.852,47.483,17.852 c13.823,0,26.709-3.963,37.716-10.706c1.763-1.087,3.474-2.233,5.131-3.453c1.598-1.177,3.146-2.396,4.63-3.692 c0.102-0.09,0.198-0.187,0.3-0.271c1.544-1.356,3.039-2.769,4.462-4.257c1.507-1.574,2.954-3.195,4.317-4.9 c9.932-12.403,15.913-28.1,15.913-45.195c0-6.092-0.835-11.977-2.264-17.639c-0.523-2.072-1.117-4.107-1.814-6.107 c-0.684-1.96-1.435-3.891-2.275-5.779c-11.331-25.271-36.674-42.943-66.116-42.943c-39.956,0-72.466,32.51-72.466,72.469 c0,17.09,5.978,32.786,15.907,45.189C71.755,164.1,73.2,165.721,74.707,167.295z"/></symbol><symbol id="home" viewBox="0 0 512 512"><title>home</title><path d="m498.195312 222.695312c-.011718-.011718-.023437-.023437-.035156-.035156l-208.855468-208.847656c-8.902344-8.90625-20.738282-13.8125-33.328126-13.8125-12.589843 0-24.425781 4.902344-33.332031 13.808594l-208.746093 208.742187c-.070313.070313-.140626.144531-.210938.214844-18.28125 18.386719-18.25 48.21875.089844 66.558594 8.378906 8.382812 19.445312 13.238281 31.277344 13.746093.480468.046876.964843.070313 1.453124.070313h8.324219v153.699219c0 30.414062 24.746094 55.160156 55.167969 55.160156h81.710938c8.28125 0 15-6.714844 15-15v-120.5c0-13.878906 11.289062-25.167969 25.167968-25.167969h48.195313c13.878906 0 25.167969 11.289063 25.167969 25.167969v120.5c0 8.285156 6.714843 15 15 15h81.710937c30.421875 0 55.167969-24.746094 55.167969-55.160156v-153.699219h7.71875c12.585937 0 24.421875-4.902344 33.332031-13.808594 18.359375-18.371093 18.367187-48.253906.023437-66.636719zm0 0"/></symbol><symbol id="bar-chart" viewBox="0 0 512 512"><title>bar-chart</title><g> <g> <path d="M117.547,234.667H10.88c-5.888,0-10.667,4.779-10.667,10.667v256C0.213,507.221,4.992,512,10.88,512h106.667 c5.888,0,10.667-4.779,10.667-10.667v-256C128.213,239.445,123.456,234.667,117.547,234.667z"/> </g> </g><g> <g> <path d="M309.12,0H202.453c-5.888,0-10.667,4.779-10.667,10.667v490.667c0,5.888,4.779,10.667,10.667,10.667H309.12 c5.888,0,10.667-4.779,10.667-10.667V10.667C319.787,4.779,315.008,0,309.12,0z" /> </g> </g><g> <g> <path d="M501.12,106.667H394.453c-5.888,0-10.667,4.779-10.667,10.667v384c0,5.888,4.779,10.667,10.667,10.667H501.12 c5.888,0,10.667-4.779,10.667-10.667v-384C511.787,111.445,507.008,106.667,501.12,106.667z"/> </g> </g></symbol><symbol id="logout" viewBox="0 0 512 512"><title>logout</title><g> <g> <path d="M255.15,468.625H63.787c-11.737,0-21.262-9.526-21.262-21.262V64.638c0-11.737,9.526-21.262,21.262-21.262H255.15 c11.758,0,21.262-9.504,21.262-21.262S266.908,0.85,255.15,0.85H63.787C28.619,0.85,0,29.47,0,64.638v382.724 c0,35.168,28.619,63.787,63.787,63.787H255.15c11.758,0,21.262-9.504,21.262-21.262 C276.412,478.129,266.908,468.625,255.15,468.625z"/> </g> </g><g> <g> <path d="M505.664,240.861L376.388,113.286c-8.335-8.25-21.815-8.143-30.065,0.213s-8.165,21.815,0.213,30.065l92.385,91.173 H191.362c-11.758,0-21.262,9.504-21.262,21.262c0,11.758,9.504,21.263,21.262,21.263h247.559l-92.385,91.173 c-8.377,8.25-8.441,21.709-0.213,30.065c4.167,4.21,9.653,6.336,15.139,6.336c5.401,0,10.801-2.041,14.926-6.124l129.276-127.575 c4.04-3.997,6.336-9.441,6.336-15.139C512,250.302,509.725,244.88,505.664,240.861z"/> </g> </g></symbol><symbol id="folder" viewBox="0 0 512.001 512.001"><title>folder</title><path d="M448.916,118.259h-162.05c-6.578,0-13.003-2.701-17.44-7.292l-50.563-53.264c-12.154-12.115-28.783-18.443-45.625-18.346 H63.084C28.301,39.356,0,67.657,0,102.439v307.123c0,34.783,28.301,63.084,63.084,63.084h386.064h0.058 c34.764-0.154,62.949-28.59,62.794-63.277V181.342C512,146.559,483.699,118.259,448.916,118.259z M473.417,409.447 c0.058,13.504-10.88,24.558-24.307,24.616H63.084c-13.504,0-24.5-10.996-24.5-24.5V102.439c0-13.504,10.996-24.5,24.5-24.52 H173.74c0.212,0,0.424,0,0.637,0c6.443,0,12.694,2.566,16.899,6.733l50.293,53.013c11.806,12.192,28.32,19.176,45.297,19.176 h162.05c13.504,0,24.5,10.996,24.5,24.5V409.447z"/></symbol><symbol id="calendar" viewBox="0 0 512 512"><title>calendar</title><g> <g> <path d="M452,40h-24V0h-40v40H124V0H84v40H60C26.916,40,0,66.916,0,100v352c0,33.084,26.916,60,60,60h392 c33.084,0,60-26.916,60-60V100C512,66.916,485.084,40,452,40z M472,452c0,11.028-8.972,20-20,20H60c-11.028,0-20-8.972-20-20V188 h432V452z M472,148H40v-48c0-11.028,8.972-20,20-20h24v40h40V80h264v40h40V80h24c11.028,0,20,8.972,20,20V148z"/> </g> </g><g> <g> <rect x="76" y="230" width="40" height="40" /> </g> </g><g> <g> <rect x="156" y="230" width="40" height="40" /> </g> </g><g> <g> <rect x="236" y="230" width="40" height="40" /> </g> </g><g> <g> <rect x="316" y="230" width="40" height="40" /> </g> </g><g> <g> <rect x="396" y="230" width="40" height="40" /> </g> </g><g> <g> <rect x="76" y="310" width="40" height="40" /> </g> </g><g> <g> <rect x="156" y="310" width="40" height="40" /> </g> </g><g> <g> <rect x="236" y="310" width="40" height="40" /> </g> </g><g> <g> <rect x="316" y="310" width="40" height="40" /> </g> </g><g> <g> <rect x="76" y="390" width="40" height="40"/> </g> </g><g> <g> <rect x="156" y="390" width="40" height="40" /> </g> </g><g> <g> <rect x="236" y="390" width="40" height="40"/> </g> </g><g> <g> <rect x="316" y="390" width="40" height="40"/> </g> </g><g> <g> <rect x="396" y="310" width="40" height="40"/> </g> </g></symbol><symbol id="comment" viewBox="-21 -47 682.66669 682"><title>comment</title><path d="m552.011719-1.332031h-464.023438c-48.515625 0-87.988281 39.464843-87.988281 87.988281v283.972656c0 48.414063 39.300781 87.816406 87.675781 87.988282v128.863281l185.191407-128.863281h279.144531c48.515625 0 87.988281-39.472657 87.988281-87.988282v-283.972656c0-48.523438-39.472656-87.988281-87.988281-87.988281zm50.488281 371.960937c0 27.835938-22.648438 50.488282-50.488281 50.488282h-290.910157l-135.925781 94.585937v-94.585937h-37.1875c-27.839843 0-50.488281-22.652344-50.488281-50.488282v-283.972656c0-27.84375 22.648438-50.488281 50.488281-50.488281h464.023438c27.839843 0 50.488281 22.644531 50.488281 50.488281zm0 0" /><path d="m171.292969 131.171875h297.414062v37.5h-297.414062zm0 0" /><path d="m171.292969 211.171875h297.414062v37.5h-297.414062zm0 0"/><path d="m171.292969 291.171875h297.414062v37.5h-297.414062zm0 0" /></symbol></svg>